<?xml version="1.0" encoding="UTF-8" standalone="no"?>
<!-- Created with Inkscape (http://www.inkscape.org/) -->

<svg
   xmlns:dc="http://purl.org/dc/elements/1.1/"
   xmlns:cc="http://creativecommons.org/ns#"
   xmlns:rdf="http://www.w3.org/1999/02/22-rdf-syntax-ns#"
   xmlns:svg="http://www.w3.org/2000/svg"
   xmlns="http://www.w3.org/2000/svg"
   xmlns:xlink="http://www.w3.org/1999/xlink"
   xmlns:sodipodi="http://sodipodi.sourceforge.net/DTD/sodipodi-0.dtd"
   xmlns:inkscape="http://www.inkscape.org/namespaces/inkscape"
   version="1.0"
   width="220"
   height="270"
   id="svg1923"
   sodipodi:docname="Bremsstrahlung.svg"
   inkscape:export-filename="/home/user/MyThesisAsInGit/RPC/Brem.png"
   inkscape:export-xdpi="96"
   inkscape:export-ydpi="96"
   inkscape:version="0.92.1 r">
  <sodipodi:namedview
     pagecolor="#ffffff"
     bordercolor="#666666"
     borderopacity="1"
     objecttolerance="10"
     gridtolerance="10"
     guidetolerance="10"
     inkscape:pageopacity="0"
     inkscape:pageshadow="2"
     inkscape:window-width="1366"
     inkscape:window-height="703"
     id="namedview47"
     showgrid="false"
     inkscape:zoom="2"
     inkscape:cx="30.023826"
     inkscape:cy="43"
     inkscape:window-x="0"
     inkscape:window-y="0"
     inkscape:window-maximized="1"
     inkscape:current-layer="svg1923" />
  <metadata
     id="metadata1928">
    <rdf:RDF>
      <cc:Work
         rdf:about="">
        <dc:format>image/svg+xml</dc:format>
        <dc:type
           rdf:resource="http://purl.org/dc/dcmitype/StillImage" />
        <cc:license
           rdf:resource="http://web.resource.org/cc/PublicDomain" />
        <dc:title />
      </cc:Work>
      <cc:License
         rdf:about="http://web.resource.org/cc/PublicDomain">
        <cc:permits
           rdf:resource="http://web.resource.org/cc/Reproduction" />
        <cc:permits
           rdf:resource="http://web.resource.org/cc/Distribution" />
        <cc:permits
           rdf:resource="http://web.resource.org/cc/DerivativeWorks" />
      </cc:License>
    </rdf:RDF>
  </metadata>
  <defs
     id="defs1926">
    <radialGradient
       inkscape:collect="always"
       xlink:href="#linearGradient3373"
       id="radialGradient2649"
       gradientUnits="userSpaceOnUse"
       cx="319.80621"
       cy="194.60178"
       fx="319.80621"
       fy="194.60178"
       r="205.23125"
       gradientTransform="matrix(0.06476747,0,0,0.06476747,74.36464,114.51471)" />
    <linearGradient
       id="linearGradient3373">
      <stop
         id="stop3375"
         style="stop-color:#c7c7c7;stop-opacity:1"
         offset="0" />
      <stop
         id="stop3377"
         style="stop-color:#828282;stop-opacity:1"
         offset="1" />
    </linearGradient>
    <radialGradient
       inkscape:collect="always"
       xlink:href="#linearGradient3373"
       id="radialGradient2652"
       gradientUnits="userSpaceOnUse"
       cx="319.80621"
       cy="194.60178"
       fx="319.80621"
       fy="194.60178"
       r="205.23125"
       gradientTransform="matrix(0.06476747,0,0,0.06476747,53.04914,142.33568)" />
    <radialGradient
       inkscape:collect="always"
       xlink:href="#linearGradient3373"
       id="radialGradient2655"
       gradientUnits="userSpaceOnUse"
       cx="319.80621"
       cy="194.60178"
       fx="319.80621"
       fy="194.60178"
       r="205.23125"
       gradientTransform="matrix(0.06476747,0,0,0.06476747,50.62232,111.67345)" />
    <radialGradient
       inkscape:collect="always"
       xlink:href="#linearGradient3326"
       id="radialGradient2658"
       gradientUnits="userSpaceOnUse"
       cx="319.80621"
       cy="194.60178"
       fx="319.80621"
       fy="194.60178"
       r="205.23125"
       gradientTransform="matrix(0.06476747,0,0,0.06476747,64.36217,128.60655)" />
    <linearGradient
       id="linearGradient3326">
      <stop
         id="stop3328"
         style="stop-color:#ff8f8f;stop-opacity:1"
         offset="0" />
      <stop
         id="stop3330"
         style="stop-color:#ff0505;stop-opacity:1"
         offset="1" />
    </linearGradient>
    <radialGradient
       inkscape:collect="always"
       xlink:href="#linearGradient3373"
       id="radialGradient2661"
       gradientUnits="userSpaceOnUse"
       cx="319.80621"
       cy="194.60178"
       fx="319.80621"
       fy="194.60178"
       r="205.23125"
       gradientTransform="matrix(0.06476747,0,0,0.06476747,72.02552,129.88843)" />
    <radialGradient
       inkscape:collect="always"
       xlink:href="#linearGradient3326"
       id="radialGradient2664"
       gradientUnits="userSpaceOnUse"
       cx="319.80621"
       cy="194.60178"
       fx="319.80621"
       fy="194.60178"
       r="205.23125"
       gradientTransform="matrix(0.06476747,0,0,0.06476747,45.20129,129.40456)" />
    <radialGradient
       inkscape:collect="always"
       xlink:href="#linearGradient3326"
       id="radialGradient2667"
       gradientUnits="userSpaceOnUse"
       cx="319.80621"
       cy="194.60178"
       fx="319.80621"
       fy="194.60178"
       r="205.23125"
       gradientTransform="matrix(0.06476747,0,0,0.06476747,81.67395,128.23547)" />
    <radialGradient
       inkscape:collect="always"
       xlink:href="#linearGradient3326"
       id="radialGradient2670"
       gradientUnits="userSpaceOnUse"
       cx="319.80621"
       cy="194.60178"
       fx="319.80621"
       fy="194.60178"
       r="205.23125"
       gradientTransform="matrix(0.06476747,0,0,0.06476747,63.86074,145.63948)" />
    <radialGradient
       inkscape:collect="always"
       xlink:href="#linearGradient3326"
       id="radialGradient2673"
       gradientUnits="userSpaceOnUse"
       cx="319.80621"
       cy="194.60178"
       fx="319.80621"
       fy="194.60178"
       r="205.23125"
       gradientTransform="matrix(0.06476747,0,0,0.06476747,65.50044,108.07226)" />
    <radialGradient
       inkscape:collect="always"
       xlink:href="#linearGradient3433"
       id="radialGradient2602"
       gradientUnits="userSpaceOnUse"
       cx="319.80621"
       cy="194.60178"
       fx="319.80621"
       fy="194.60178"
       r="205.23125"
       gradientTransform="matrix(0.06476747,0,0,0.06476747,-2.45238,2.355872)" />
    <linearGradient
       id="linearGradient3433">
      <stop
         id="stop3435"
         style="stop-color:#8f8fff;stop-opacity:1"
         offset="0" />
      <stop
         id="stop3437"
         style="stop-color:#0505ff;stop-opacity:1"
         offset="1" />
    </linearGradient>
    <radialGradient
       inkscape:collect="always"
       xlink:href="#linearGradient3433"
       id="radialGradient2602-4"
       gradientUnits="userSpaceOnUse"
       cx="319.80621"
       cy="194.60178"
       fx="319.80621"
       fy="194.60178"
       r="205.23125"
       gradientTransform="matrix(0.06476747,0,0,0.06476747,148.63762,198.55587)" />
  </defs>
  <path
     d="m 96,169.5 a 2.115,2.115 0 1 1 -4.23,0 2.115,2.115 0 1 1 4.23,0 z"
     transform="matrix(4.318,0,0,4.318,-325.8,-590.5)"
     id="path10105"
     style="fill:#ff0000;fill-opacity:1;fill-rule:evenodd;stroke:#ff0000;stroke-width:1;stroke-linejoin:round;stroke-miterlimit:4;stroke-opacity:1;stroke-dasharray:none;stroke-dashoffset:0" />
  <text
     x="127.44883"
     y="63.033714"
     id="text17193"
     xml:space="preserve"
     style="font-size:12px;font-style:normal;font-weight:normal;fill:#000000;fill-opacity:1;stroke:none;font-family:Arial"><tspan
       x="127.44883"
       y="63.033714"
       id="tspan17195">h·f=E  -E</tspan></text>
  <text
     x="29.261662"
     y="10.730334"
     id="text17197"
     xml:space="preserve"
     style="font-style:normal;font-weight:normal;font-size:12px;font-family:Arial;fill:#000000;fill-opacity:1;stroke:none"><tspan
       x="29.261662"
       y="10.730334"
       id="tspan17199">E</tspan></text>
  <text
     x="19.020947"
     y="38.825836"
     id="text17205"
     xml:space="preserve"
     style="font-style:normal;font-weight:normal;font-size:12px;font-family:Arial;fill:#000000;fill-opacity:1;stroke:none"><tspan
       sodipodi:role="line"
       id="tspan49"
       x="19.020947"
       y="38.825836">μ</tspan></text>
  <text
     x="72.043968"
     y="151.15668"
     id="text17209"
     xml:space="preserve"
     style="font-size:27.0421px;font-style:normal;font-weight:normal;fill:#000000;fill-opacity:1;stroke:none;font-family:Arial"><tspan
       x="72.043968"
       y="151.15668"
       id="tspan17211">+</tspan></text>
  <text
     x="36.374439"
     y="13.482258"
     id="text17221"
     xml:space="preserve"
     style="font-style:normal;font-weight:normal;font-size:12px;line-height:125%;font-family:Arial;fill:#000000;fill-opacity:1;stroke:none"><tspan
       x="36.374439"
       y="13.482258"
       id="tspan17223"
       style="font-style:normal;font-variant:normal;font-weight:normal;font-stretch:normal;font-size:11px;line-height:125%;font-family:Arial;text-align:start;writing-mode:lr-tb;text-anchor:start">1</tspan></text>
  <path
     d="m 96,169.5 a 2.115,2.115 0 1 1 -4.23,0 2.115,2.115 0 1 1 4.23,0 z"
     transform="matrix(1.809,0,0,1.923,-156,-308.5)"
     id="path2804"
     style="fill:#0000ff;fill-opacity:1;fill-rule:evenodd;stroke:#0000ff;stroke-width:1;stroke-linejoin:round;stroke-miterlimit:4;stroke-opacity:1;stroke-dasharray:none;stroke-dashoffset:0" />
  <path
     d="m 96,169.5 a 2.115,2.115 0 1 1 -4.23,0 2.115,2.115 0 1 1 4.23,0 z"
     transform="matrix(1.809,0,0,1.923,-3.064,-108.9)"
     id="path3691"
     style="fill:#0000ff;fill-opacity:1;fill-rule:evenodd;stroke:#0000ff;stroke-width:1;stroke-linejoin:round;stroke-miterlimit:4;stroke-opacity:1;stroke-dasharray:none;stroke-dashoffset:0" />
  <path
     d="m 24.21,21.8 c 0,0 60.92,25.47 96.29,72.67 35.3,47.23 45.1,116.13 45.1,116.13 l -0.5,0.5"
     id="path4578"
     style="fill:none;stroke:#000000;stroke-width:1;stroke-linecap:butt;stroke-linejoin:miter;stroke-miterlimit:4;stroke-opacity:1;stroke-dasharray:4, 4;stroke-dashoffset:0" />
  <path
     d="m 19.95,19.77 49.27,22.4"
     id="path5465"
     style="fill:none;stroke:#0000ff;stroke-width:1px;stroke-linecap:butt;stroke-linejoin:miter;stroke-opacity:1" />
  <path
     d="m 167.9,224.5 3.4,31"
     id="path6352"
     style="fill:none;stroke:#0000ff;stroke-width:1px;stroke-linecap:butt;stroke-linejoin:miter;stroke-opacity:1" />
  <path
     d="m 71.03,38.24 c -3.05,7.3 -3.16,7.56 -3.16,7.56 l 8.24,-0.6 -5.08,-6.96 z"
     id="path6354"
     style="fill:#0000ff;fill-opacity:1;fill-rule:evenodd;stroke:#0000ff;stroke-width:0.4792px;stroke-linecap:butt;stroke-linejoin:miter;stroke-opacity:1" />
  <path
     d="m 175.7,255.2 c -7.9,0.7 -8.1,0.7 -8.1,0.7 l 4.3,7 3.8,-7.7 z"
     id="path7241"
     style="fill:#0000ff;fill-opacity:1;fill-rule:evenodd;stroke:#0000ff;stroke-width:0.4792px;stroke-linecap:butt;stroke-linejoin:miter;stroke-opacity:1" />
  <text
     x="179.0851"
     y="204.14696"
     id="text7247"
     xml:space="preserve"
     style="font-style:normal;font-weight:normal;font-size:12px;font-family:Arial;fill:#000000;fill-opacity:1;stroke:none"><tspan
       x="179.0851"
       y="204.14696"
       id="tspan7249">E</tspan></text>
  <text
     x="186.70116"
     y="209.82379"
     id="text7251"
     xml:space="preserve"
     style="font-style:normal;font-weight:normal;font-size:12px;line-height:125%;font-family:Arial;fill:#000000;fill-opacity:1;stroke:none"><tspan
       x="186.70116"
       y="209.82379"
       id="tspan7253"
       style="font-style:normal;font-variant:normal;font-weight:normal;font-stretch:normal;font-size:11px;line-height:125%;font-family:Arial;text-align:start;writing-mode:lr-tb;text-anchor:start">2</tspan></text>
  <path
     d="m 144.4,101.9 c 3,-2.21 -0.6,-7.98 3.7,-10.59 4.3,-2.62 6.5,2.87 10.5,0.57 4.1,-2.3 2.1,-7.94 5.9,-10.45 3.8,-2.51 5.9,3.24 9.6,0.83 3.7,-2.4 1.4,-7.73 5,-10.03 3.7,-2.3 6.5,3.76 10.1,1.67 3.5,-2.09 -0.2,-8.47 3.3,-10.46 3.6,-1.98 7.4,2.51 10.9,2.09 3.4,-0.41 3.1,-5.85 4.5,-8.78"
     id="path7255"
     style="fill:none;stroke:#00ff00;stroke-width:1px;stroke-linecap:butt;stroke-linejoin:miter;stroke-opacity:1" />
  <path
     d="m 210.7,60.83 c 2.9,-7.34 3,-7.6 3,-7.6 l -8.2,0.71 5.2,6.89 z"
     id="path7257"
     style="fill:#00ff00;fill-opacity:1;fill-rule:evenodd;stroke:#00ff00;stroke-width:0.4792px;stroke-linecap:butt;stroke-linejoin:miter;stroke-opacity:1" />
  <text
     x="175.69623"
     y="67.651978"
     id="text9029"
     xml:space="preserve"
     style="font-size:12px;font-style:normal;font-weight:normal;line-height:125%;fill:#000000;fill-opacity:1;stroke:none;font-family:Arial"><tspan
       x="175.69623"
       y="67.651978"
       id="tspan9031"
       style="font-size:11px;font-style:normal;font-variant:normal;font-weight:normal;font-stretch:normal;text-align:start;line-height:125%;writing-mode:lr-tb;text-anchor:start;font-family:Arial">2</tspan></text>
  <text
     x="156.61916"
     y="67.651962"
     id="text9033"
     xml:space="preserve"
     style="font-size:12px;font-style:normal;font-weight:normal;line-height:125%;fill:#000000;fill-opacity:1;stroke:none;font-family:Arial"><tspan
       x="156.61916"
       y="67.651962"
       id="tspan9035"
       style="font-size:11px;font-style:normal;font-variant:normal;font-weight:normal;font-stretch:normal;text-align:start;line-height:125%;writing-mode:lr-tb;text-anchor:start;font-family:Arial">1</tspan></text>
  <text
     x="164.15479"
     y="220.75423"
     id="text9055"
     xml:space="preserve"
     style="font-size:14.244px;font-style:normal;font-weight:normal;fill:#000000;fill-opacity:1;stroke:none;font-family:Arial"><tspan
       x="164.15479"
       y="220.75423"
       id="tspan9057">-</tspan></text>
  <text
     x="11.201603"
     y="21.42499"
     id="text9059"
     xml:space="preserve"
     style="font-size:14.244px;font-style:normal;font-weight:normal;fill:#000000;fill-opacity:1;stroke:none;font-family:Arial"><tspan
       x="11.201603"
       y="21.42499"
       id="tspan9061">-</tspan></text>
  <text
     x="43.47303"
     y="27.837864"
     id="text3061"
     xml:space="preserve"
     style="font-size:12px;font-style:normal;font-weight:normal;fill:#000000;fill-opacity:1;stroke:none;font-family:Arial"><tspan
       x="43.47303"
       y="27.837864"
       id="tspan3063"
       style="font-style:oblique;fill:#000000;-inkscape-font-specification:Arial Oblique">v</tspan></text>
  <text
     x="48.109097"
     y="31.337273"
     id="text17221-1"
     xml:space="preserve"
     style="font-size:12px;font-style:normal;font-weight:normal;line-height:125%;fill:#000000;fill-opacity:1;stroke:none;font-family:Arial"><tspan
       x="48.109097"
       y="31.337273"
       id="tspan17223-7"
       style="font-size:8px;font-style:normal;font-variant:normal;font-weight:normal;font-stretch:normal;text-align:start;line-height:125%;writing-mode:lr-tb;text-anchor:start;fill:#000000;font-family:Arial">1</tspan></text>
  <text
     x="172.16502"
     y="243.93301"
     id="text3061-4"
     xml:space="preserve"
     style="font-size:12px;font-style:normal;font-weight:normal;fill:#000000;fill-opacity:1;stroke:none;font-family:Arial"><tspan
       x="172.16502"
       y="243.93301"
       id="tspan3063-0"
       style="font-style:oblique;fill:#000000;-inkscape-font-specification:Arial Oblique">v</tspan></text>
  <text
     x="176.80109"
     y="247.43243"
     id="text17221-1-9"
     xml:space="preserve"
     style="font-size:12px;font-style:normal;font-weight:normal;line-height:125%;fill:#000000;fill-opacity:1;stroke:none;font-family:Arial"><tspan
       x="176.80109"
       y="247.43243"
       id="tspan17223-7-4"
       style="font-size:8px;font-style:normal;font-variant:normal;font-weight:normal;font-stretch:normal;text-align:start;line-height:125%;writing-mode:lr-tb;text-anchor:start;fill:#000000;font-family:Arial">2</tspan></text>
  <text
     x="144.47812"
     y="224.71855"
     id="text17205-5"
     xml:space="preserve"
     style="font-style:normal;font-weight:normal;font-size:12px;font-family:Arial;fill:#000000;fill-opacity:1;stroke:none"><tspan
       sodipodi:role="line"
       id="tspan49-9"
       x="144.47812"
       y="224.71855">μ</tspan></text>
  <path
     d="m 95.66282,122.01639 c 8.6e-4,7.06985 -5.73015,12.80157 -12.8,12.80157 -7.06987,0 -12.80088,-5.73172 -12.8,-12.80157 -8.8e-4,-7.06986 5.73013,-12.80158 12.8,-12.80158 7.06985,0 12.80086,5.73172 12.8,12.80158 z"
     id="path3324"
     style="fill:url(#radialGradient2673);fill-opacity:1;fill-rule:nonzero;stroke:#000000;stroke-width:1.0666666;stroke-linecap:round;stroke-linejoin:miter;stroke-miterlimit:10;stroke-dasharray:none;stroke-dashoffset:0;stroke-opacity:1"
     inkscape:connector-curvature="0" />
  <path
     d="m 94.02312,159.58361 c 8.6e-4,7.06985 -5.73015,12.80158 -12.8,12.80158 -7.06987,0 -12.80088,-5.73173 -12.8,-12.80158 -8.8e-4,-7.06986 5.73013,-12.80158 12.8,-12.80158 7.06985,0 12.80086,5.73172 12.8,12.80158 z"
     id="path3340"
     style="fill:url(#radialGradient2670);fill-opacity:1;fill-rule:nonzero;stroke:#000000;stroke-width:1.0666666;stroke-linecap:round;stroke-linejoin:miter;stroke-miterlimit:10;stroke-dasharray:none;stroke-dashoffset:0;stroke-opacity:1"
     inkscape:connector-curvature="0" />
  <path
     d="m 111.83633,142.1796 c 8.7e-4,7.06985 -5.73014,12.80158 -12.8,12.80158 -7.06986,0 -12.80087,-5.73173 -12.8,-12.80158 -8.7e-4,-7.06986 5.73014,-12.80158 12.8,-12.80158 7.06986,0 12.80087,5.73172 12.8,12.80158 z"
     id="path3355"
     style="fill:url(#radialGradient2667);fill-opacity:1;fill-rule:nonzero;stroke:#000000;stroke-width:1.0666666;stroke-linecap:round;stroke-linejoin:miter;stroke-miterlimit:10;stroke-dasharray:none;stroke-dashoffset:0;stroke-opacity:1"
     inkscape:connector-curvature="0" />
  <path
     d="m 75.36367,143.34868 c 8.7e-4,7.06986 -5.73014,12.80158 -12.8,12.80158 -7.06986,0 -12.80087,-5.73172 -12.8,-12.80158 -8.7e-4,-7.06985 5.73014,-12.80157 12.8,-12.80157 7.06986,0 12.80087,5.73172 12.8,12.80157 z"
     id="path3359"
     style="fill:url(#radialGradient2664);fill-opacity:1;fill-rule:nonzero;stroke:#000000;stroke-width:1.0666666;stroke-linecap:round;stroke-linejoin:miter;stroke-miterlimit:10;stroke-dasharray:none;stroke-dashoffset:0;stroke-opacity:1"
     inkscape:connector-curvature="0" />
  <path
     d="m 102.1879,143.83256 c 8.6e-4,7.06985 -5.73015,12.80158 -12.8,12.80158 -7.06987,0 -12.80088,-5.73173 -12.8,-12.80158 -8.8e-4,-7.06986 5.73013,-12.80158 12.8,-12.80158 7.06985,0 12.80086,5.73172 12.8,12.80158 z"
     id="path3369"
     style="fill:url(#radialGradient2661);fill-opacity:1;fill-rule:nonzero;stroke:#000000;stroke-width:1.0666666;stroke-linecap:round;stroke-linejoin:miter;stroke-miterlimit:10;stroke-dasharray:none;stroke-dashoffset:0;stroke-opacity:1"
     inkscape:connector-curvature="0" />
  <path
     d="m 94.52455,142.55068 c 8.6e-4,7.06986 -5.73015,12.80158 -12.8,12.80158 -7.06987,0 -12.80088,-5.73172 -12.8,-12.80158 -8.8e-4,-7.06986 5.73013,-12.80158 12.8,-12.80158 7.06985,0 12.80086,5.73172 12.8,12.80158 z"
     id="path3363"
     style="fill:url(#radialGradient2658);fill-opacity:1;fill-rule:nonzero;stroke:#000000;stroke-width:1.0666666;stroke-linecap:round;stroke-linejoin:miter;stroke-miterlimit:10;stroke-dasharray:none;stroke-dashoffset:0;stroke-opacity:1"
     inkscape:connector-curvature="0" />
  <path
     d="m 80.7847,125.61758 c 8.6e-4,7.06986 -5.73015,12.80158 -12.8,12.80158 -7.06987,0 -12.80088,-5.73172 -12.8,-12.80158 -8.8e-4,-7.06986 5.73013,-12.80158 12.8,-12.80158 7.06985,0 12.80086,5.73172 12.8,12.80158 z"
     id="path3379"
     style="fill:url(#radialGradient2655);fill-opacity:1;fill-rule:nonzero;stroke:#000000;stroke-width:1.0666666;stroke-linecap:round;stroke-linejoin:miter;stroke-miterlimit:10;stroke-dasharray:none;stroke-dashoffset:0;stroke-opacity:1"
     inkscape:connector-curvature="0" />
  <path
     d="m 83.21152,156.27981 c 8.7e-4,7.06986 -5.73014,12.80158 -12.8,12.80158 -7.06986,0 -12.80087,-5.73172 -12.8,-12.80158 -8.7e-4,-7.06986 5.73014,-12.80158 12.8,-12.80158 7.06986,0 12.80087,5.73172 12.8,12.80158 z"
     id="path3381"
     style="fill:url(#radialGradient2652);fill-opacity:1;fill-rule:nonzero;stroke:#000000;stroke-width:1.0666666;stroke-linecap:round;stroke-linejoin:miter;stroke-miterlimit:10;stroke-dasharray:none;stroke-dashoffset:0;stroke-opacity:1"
     inkscape:connector-curvature="0" />
  <path
     d="m 104.52702,128.45884 c 8.7e-4,7.06986 -5.73014,12.80158 -12.8,12.80158 -7.06987,0 -12.80087,-5.73172 -12.8,-12.80158 -8.7e-4,-7.06986 5.73013,-12.80158 12.8,-12.80158 7.06986,0 12.80087,5.73172 12.8,12.80158 z"
     id="path3383"
     style="fill:url(#radialGradient2649);fill-opacity:1;fill-rule:nonzero;stroke:#000000;stroke-width:1.0666666;stroke-linecap:round;stroke-linejoin:miter;stroke-miterlimit:10;stroke-dasharray:none;stroke-dashoffset:0;stroke-opacity:1"
     inkscape:connector-curvature="0" />
  <path
     d="m 27.71,16.3 c 8.6e-4,7.06986 -5.73014,12.801578 -12.8,12.801578 C 7.84013,29.101578 2.10913,23.36986 2.11,16.3 2.10913,9.230139 7.84013,3.498422 14.91,3.498422 c 7.06986,0 12.80086,5.731717 12.8,12.801578 z"
     id="path8101"
     style="fill:url(#radialGradient2602);fill-opacity:1;fill-rule:nonzero;stroke:#000000;stroke-width:1.0666666;stroke-linecap:round;stroke-linejoin:miter;stroke-miterlimit:10;stroke-dasharray:none;stroke-dashoffset:0;stroke-opacity:1"
     inkscape:connector-curvature="0" />
  <path
     d="m 178.8,212.5 c 8.6e-4,7.06986 -5.73014,12.80158 -12.8,12.80158 -7.06987,0 -12.80087,-5.73172 -12.8,-12.80158 -8.7e-4,-7.06986 5.73013,-12.80158 12.8,-12.80158 7.06986,0 12.80086,5.73172 12.8,12.80158 z"
     id="path8101-4"
     style="fill:url(#radialGradient2602-4);fill-opacity:1;fill-rule:nonzero;stroke:#000000;stroke-width:1.0666666;stroke-linecap:round;stroke-linejoin:miter;stroke-miterlimit:10;stroke-dasharray:none;stroke-dashoffset:0;stroke-opacity:1"
     inkscape:connector-curvature="0" />
</svg>
