<svg xmlns="http://www.w3.org/2000/svg" xmlns:svg="http://www.w3.org/2000/svg" xmlns:xlink="http://www.w3.org/1999/xlink" id="svg1923" width="220" height="270" version="1.0"><metadata id="metadata1928"/><defs id="defs1926"><radialGradient id="radialGradient2649" cx="319.806" cy="194.602" r="205.231" fx="319.806" fy="194.602" gradientTransform="matrix(0.06476747,0,0,0.06476747,74.36464,114.51471)" gradientUnits="userSpaceOnUse" xlink:href="#linearGradient3373"/><linearGradient id="linearGradient3373"><stop id="stop3375" offset="0" style="stop-color:#c7c7c7;stop-opacity:1"/><stop id="stop3377" offset="1" style="stop-color:#828282;stop-opacity:1"/></linearGradient><radialGradient id="radialGradient2652" cx="319.806" cy="194.602" r="205.231" fx="319.806" fy="194.602" gradientTransform="matrix(0.06476747,0,0,0.06476747,53.04914,142.33568)" gradientUnits="userSpaceOnUse" xlink:href="#linearGradient3373"/><radialGradient id="radialGradient2655" cx="319.806" cy="194.602" r="205.231" fx="319.806" fy="194.602" gradientTransform="matrix(0.06476747,0,0,0.06476747,50.62232,111.67345)" gradientUnits="userSpaceOnUse" xlink:href="#linearGradient3373"/><radialGradient id="radialGradient2658" cx="319.806" cy="194.602" r="205.231" fx="319.806" fy="194.602" gradientTransform="matrix(0.06476747,0,0,0.06476747,64.36217,128.60655)" gradientUnits="userSpaceOnUse" xlink:href="#linearGradient3326"/><linearGradient id="linearGradient3326"><stop id="stop3328" offset="0" style="stop-color:#ff8f8f;stop-opacity:1"/><stop id="stop3330" offset="1" style="stop-color:#ff0505;stop-opacity:1"/></linearGradient><radialGradient id="radialGradient2661" cx="319.806" cy="194.602" r="205.231" fx="319.806" fy="194.602" gradientTransform="matrix(0.06476747,0,0,0.06476747,72.02552,129.88843)" gradientUnits="userSpaceOnUse" xlink:href="#linearGradient3373"/><radialGradient id="radialGradient2664" cx="319.806" cy="194.602" r="205.231" fx="319.806" fy="194.602" gradientTransform="matrix(0.06476747,0,0,0.06476747,45.20129,129.40456)" gradientUnits="userSpaceOnUse" xlink:href="#linearGradient3326"/><radialGradient id="radialGradient2667" cx="319.806" cy="194.602" r="205.231" fx="319.806" fy="194.602" gradientTransform="matrix(0.06476747,0,0,0.06476747,81.67395,128.23547)" gradientUnits="userSpaceOnUse" xlink:href="#linearGradient3326"/><radialGradient id="radialGradient2670" cx="319.806" cy="194.602" r="205.231" fx="319.806" fy="194.602" gradientTransform="matrix(0.06476747,0,0,0.06476747,63.86074,145.63948)" gradientUnits="userSpaceOnUse" xlink:href="#linearGradient3326"/><radialGradient id="radialGradient2673" cx="319.806" cy="194.602" r="205.231" fx="319.806" fy="194.602" gradientTransform="matrix(0.06476747,0,0,0.06476747,65.50044,108.07226)" gradientUnits="userSpaceOnUse" xlink:href="#linearGradient3326"/><radialGradient id="radialGradient2602" cx="319.806" cy="194.602" r="205.231" fx="319.806" fy="194.602" gradientTransform="matrix(0.06476747,0,0,0.06476747,-2.45238,2.355872)" gradientUnits="userSpaceOnUse" xlink:href="#linearGradient3433"/><linearGradient id="linearGradient3433"><stop id="stop3435" offset="0" style="stop-color:#8f8fff;stop-opacity:1"/><stop id="stop3437" offset="1" style="stop-color:#0505ff;stop-opacity:1"/></linearGradient><radialGradient id="radialGradient2602-4" cx="319.806" cy="194.602" r="205.231" fx="319.806" fy="194.602" gradientTransform="matrix(0.06476747,0,0,0.06476747,148.63762,198.55587)" gradientUnits="userSpaceOnUse" xlink:href="#linearGradient3433"/></defs><path id="path10105" d="m 96,169.5 a 2.115,2.115 0 1 1 -4.23,0 2.115,2.115 0 1 1 4.23,0 z" transform="matrix(4.318,0,0,4.318,-325.8,-590.5)" style="fill:red;fill-opacity:1;fill-rule:evenodd;stroke:red;stroke-width:1;stroke-linejoin:round;stroke-miterlimit:4;stroke-opacity:1;stroke-dasharray:none;stroke-dashoffset:0"/><text id="text17193" x="127.449" y="63.034" xml:space="preserve" style="font-size:12px;font-style:normal;font-weight:400;fill:#000;fill-opacity:1;stroke:none;font-family:Arial"><tspan id="tspan17195" x="127.449" y="63.034">h·f=E -E</tspan></text><text id="text17197" x="29.262" y="10.73" xml:space="preserve" style="font-style:normal;font-weight:400;font-size:12px;font-family:Arial;fill:#000;fill-opacity:1;stroke:none"><tspan id="tspan17199" x="29.262" y="10.73">E</tspan></text><text id="text17205" x="19.021" y="38.826" xml:space="preserve" style="font-style:normal;font-weight:400;font-size:12px;font-family:Arial;fill:#000;fill-opacity:1;stroke:none"><tspan id="tspan49" x="19.021" y="38.826">e-</tspan></text><text id="text17209" x="72.044" y="151.157" xml:space="preserve" style="font-size:27.0421px;font-style:normal;font-weight:400;fill:#000;fill-opacity:1;stroke:none;font-family:Arial"><tspan id="tspan17211" x="72.044" y="151.157">+</tspan></text><text id="text17221" x="36.374" y="13.482" xml:space="preserve" style="font-style:normal;font-weight:400;font-size:12px;line-height:125%;font-family:Arial;fill:#000;fill-opacity:1;stroke:none"><tspan id="tspan17223" x="36.374" y="13.482" style="font-style:normal;font-variant:normal;font-weight:400;font-stretch:normal;font-size:11px;line-height:125%;font-family:Arial;text-align:start;writing-mode:lr-tb;text-anchor:start">1</tspan></text><path id="path2804" d="m 96,169.5 a 2.115,2.115 0 1 1 -4.23,0 2.115,2.115 0 1 1 4.23,0 z" transform="matrix(1.809,0,0,1.923,-156,-308.5)" style="fill:#00f;fill-opacity:1;fill-rule:evenodd;stroke:#00f;stroke-width:1;stroke-linejoin:round;stroke-miterlimit:4;stroke-opacity:1;stroke-dasharray:none;stroke-dashoffset:0"/><path id="path3691" d="m 96,169.5 a 2.115,2.115 0 1 1 -4.23,0 2.115,2.115 0 1 1 4.23,0 z" transform="matrix(1.809,0,0,1.923,-3.064,-108.9)" style="fill:#00f;fill-opacity:1;fill-rule:evenodd;stroke:#00f;stroke-width:1;stroke-linejoin:round;stroke-miterlimit:4;stroke-opacity:1;stroke-dasharray:none;stroke-dashoffset:0"/><path id="path4578" d="m 24.21,21.8 c 0,0 60.92,25.47 96.29,72.67 35.3,47.23 45.1,116.13 45.1,116.13 l -0.5,0.5" style="fill:none;stroke:#000;stroke-width:1;stroke-linecap:butt;stroke-linejoin:miter;stroke-miterlimit:4;stroke-opacity:1;stroke-dasharray:4,4;stroke-dashoffset:0"/><path id="path5465" d="m 19.95,19.77 49.27,22.4" style="fill:none;stroke:#00f;stroke-width:1px;stroke-linecap:butt;stroke-linejoin:miter;stroke-opacity:1"/><path id="path6352" d="m 167.9,224.5 3.4,31" style="fill:none;stroke:#00f;stroke-width:1px;stroke-linecap:butt;stroke-linejoin:miter;stroke-opacity:1"/><path id="path6354" d="m 71.03,38.24 c -3.05,7.3 -3.16,7.56 -3.16,7.56 l 8.24,-0.6 -5.08,-6.96 z" style="fill:#00f;fill-opacity:1;fill-rule:evenodd;stroke:#00f;stroke-width:.4792px;stroke-linecap:butt;stroke-linejoin:miter;stroke-opacity:1"/><path id="path7241" d="m 175.7,255.2 c -7.9,0.7 -8.1,0.7 -8.1,0.7 l 4.3,7 3.8,-7.7 z" style="fill:#00f;fill-opacity:1;fill-rule:evenodd;stroke:#00f;stroke-width:.4792px;stroke-linecap:butt;stroke-linejoin:miter;stroke-opacity:1"/><text id="text7247" x="179.085" y="204.147" xml:space="preserve" style="font-style:normal;font-weight:400;font-size:12px;font-family:Arial;fill:#000;fill-opacity:1;stroke:none"><tspan id="tspan7249" x="179.085" y="204.147">E</tspan></text><text id="text7251" x="186.701" y="209.824" xml:space="preserve" style="font-style:normal;font-weight:400;font-size:12px;line-height:125%;font-family:Arial;fill:#000;fill-opacity:1;stroke:none"><tspan id="tspan7253" x="186.701" y="209.824" style="font-style:normal;font-variant:normal;font-weight:400;font-stretch:normal;font-size:11px;line-height:125%;font-family:Arial;text-align:start;writing-mode:lr-tb;text-anchor:start">2</tspan></text><path id="path7255" d="m 144.4,101.9 c 3,-2.21 -0.6,-7.98 3.7,-10.59 4.3,-2.62 6.5,2.87 10.5,0.57 4.1,-2.3 2.1,-7.94 5.9,-10.45 3.8,-2.51 5.9,3.24 9.6,0.83 3.7,-2.4 1.4,-7.73 5,-10.03 3.7,-2.3 6.5,3.76 10.1,1.67 3.5,-2.09 -0.2,-8.47 3.3,-10.46 3.6,-1.98 7.4,2.51 10.9,2.09 3.4,-0.41 3.1,-5.85 4.5,-8.78" style="fill:none;stroke:#0f0;stroke-width:1px;stroke-linecap:butt;stroke-linejoin:miter;stroke-opacity:1"/><path id="path7257" d="m 210.7,60.83 c 2.9,-7.34 3,-7.6 3,-7.6 l -8.2,0.71 5.2,6.89 z" style="fill:#0f0;fill-opacity:1;fill-rule:evenodd;stroke:#0f0;stroke-width:.4792px;stroke-linecap:butt;stroke-linejoin:miter;stroke-opacity:1"/><text id="text9029" x="175.696" y="67.652" xml:space="preserve" style="font-size:12px;font-style:normal;font-weight:400;line-height:125%;fill:#000;fill-opacity:1;stroke:none;font-family:Arial"><tspan id="tspan9031" x="175.696" y="67.652" style="font-size:11px;font-style:normal;font-variant:normal;font-weight:400;font-stretch:normal;text-align:start;line-height:125%;writing-mode:lr-tb;text-anchor:start;font-family:Arial">2</tspan></text><text id="text9033" x="156.619" y="67.652" xml:space="preserve" style="font-size:12px;font-style:normal;font-weight:400;line-height:125%;fill:#000;fill-opacity:1;stroke:none;font-family:Arial"><tspan id="tspan9035" x="156.619" y="67.652" style="font-size:11px;font-style:normal;font-variant:normal;font-weight:400;font-stretch:normal;text-align:start;line-height:125%;writing-mode:lr-tb;text-anchor:start;font-family:Arial">1</tspan></text><text id="text9055" x="164.155" y="220.754" xml:space="preserve" style="font-size:14.244px;font-style:normal;font-weight:400;fill:#000;fill-opacity:1;stroke:none;font-family:Arial"><tspan id="tspan9057" x="164.155" y="220.754">-</tspan></text><text id="text9059" x="11.202" y="21.425" xml:space="preserve" style="font-size:14.244px;font-style:normal;font-weight:400;fill:#000;fill-opacity:1;stroke:none;font-family:Arial"><tspan id="tspan9061" x="11.202" y="21.425">-</tspan></text><text id="text3061" x="43.473" y="27.838" xml:space="preserve" style="font-size:12px;font-style:normal;font-weight:400;fill:#000;fill-opacity:1;stroke:none;font-family:Arial"><tspan id="tspan3063" x="43.473" y="27.838" style="font-style:oblique;fill:#000;-inkscape-font-specification:Arial Oblique">v</tspan></text><text id="text17221-1" x="48.109" y="31.337" xml:space="preserve" style="font-size:12px;font-style:normal;font-weight:400;line-height:125%;fill:#000;fill-opacity:1;stroke:none;font-family:Arial"><tspan id="tspan17223-7" x="48.109" y="31.337" style="font-size:8px;font-style:normal;font-variant:normal;font-weight:400;font-stretch:normal;text-align:start;line-height:125%;writing-mode:lr-tb;text-anchor:start;fill:#000;font-family:Arial">1</tspan></text><text id="text3061-4" x="172.165" y="243.933" xml:space="preserve" style="font-size:12px;font-style:normal;font-weight:400;fill:#000;fill-opacity:1;stroke:none;font-family:Arial"><tspan id="tspan3063-0" x="172.165" y="243.933" style="font-style:oblique;fill:#000;-inkscape-font-specification:Arial Oblique">v</tspan></text><text id="text17221-1-9" x="176.801" y="247.432" xml:space="preserve" style="font-size:12px;font-style:normal;font-weight:400;line-height:125%;fill:#000;fill-opacity:1;stroke:none;font-family:Arial"><tspan id="tspan17223-7-4" x="176.801" y="247.432" style="font-size:8px;font-style:normal;font-variant:normal;font-weight:400;font-stretch:normal;text-align:start;line-height:125%;writing-mode:lr-tb;text-anchor:start;fill:#000;font-family:Arial">2</tspan></text><text id="text17205-5" x="144.478" y="224.719" xml:space="preserve" style="font-style:normal;font-weight:400;font-size:12px;font-family:Arial;fill:#000;fill-opacity:1;stroke:none"><tspan id="tspan49-9" x="144.478" y="224.719">e-</tspan></text><path id="path3324" d="m 95.66282,122.01639 c 8.6e-4,7.06985 -5.73015,12.80157 -12.8,12.80157 -7.06987,0 -12.80088,-5.73172 -12.8,-12.80157 -8.8e-4,-7.06986 5.73013,-12.80158 12.8,-12.80158 7.06985,0 12.80086,5.73172 12.8,12.80158 z" style="fill:url(#radialGradient2673);fill-opacity:1;fill-rule:nonzero;stroke:#000;stroke-width:1.0666666;stroke-linecap:round;stroke-linejoin:miter;stroke-miterlimit:10;stroke-dasharray:none;stroke-dashoffset:0;stroke-opacity:1"/><path id="path3340" d="m 94.02312,159.58361 c 8.6e-4,7.06985 -5.73015,12.80158 -12.8,12.80158 -7.06987,0 -12.80088,-5.73173 -12.8,-12.80158 -8.8e-4,-7.06986 5.73013,-12.80158 12.8,-12.80158 7.06985,0 12.80086,5.73172 12.8,12.80158 z" style="fill:url(#radialGradient2670);fill-opacity:1;fill-rule:nonzero;stroke:#000;stroke-width:1.0666666;stroke-linecap:round;stroke-linejoin:miter;stroke-miterlimit:10;stroke-dasharray:none;stroke-dashoffset:0;stroke-opacity:1"/><path id="path3355" d="m 111.83633,142.1796 c 8.7e-4,7.06985 -5.73014,12.80158 -12.8,12.80158 -7.06986,0 -12.80087,-5.73173 -12.8,-12.80158 -8.7e-4,-7.06986 5.73014,-12.80158 12.8,-12.80158 7.06986,0 12.80087,5.73172 12.8,12.80158 z" style="fill:url(#radialGradient2667);fill-opacity:1;fill-rule:nonzero;stroke:#000;stroke-width:1.0666666;stroke-linecap:round;stroke-linejoin:miter;stroke-miterlimit:10;stroke-dasharray:none;stroke-dashoffset:0;stroke-opacity:1"/><path id="path3359" d="m 75.36367,143.34868 c 8.7e-4,7.06986 -5.73014,12.80158 -12.8,12.80158 -7.06986,0 -12.80087,-5.73172 -12.8,-12.80158 -8.7e-4,-7.06985 5.73014,-12.80157 12.8,-12.80157 7.06986,0 12.80087,5.73172 12.8,12.80157 z" style="fill:url(#radialGradient2664);fill-opacity:1;fill-rule:nonzero;stroke:#000;stroke-width:1.0666666;stroke-linecap:round;stroke-linejoin:miter;stroke-miterlimit:10;stroke-dasharray:none;stroke-dashoffset:0;stroke-opacity:1"/><path id="path3369" d="m 102.1879,143.83256 c 8.6e-4,7.06985 -5.73015,12.80158 -12.8,12.80158 -7.06987,0 -12.80088,-5.73173 -12.8,-12.80158 -8.8e-4,-7.06986 5.73013,-12.80158 12.8,-12.80158 7.06985,0 12.80086,5.73172 12.8,12.80158 z" style="fill:url(#radialGradient2661);fill-opacity:1;fill-rule:nonzero;stroke:#000;stroke-width:1.0666666;stroke-linecap:round;stroke-linejoin:miter;stroke-miterlimit:10;stroke-dasharray:none;stroke-dashoffset:0;stroke-opacity:1"/><path id="path3363" d="m 94.52455,142.55068 c 8.6e-4,7.06986 -5.73015,12.80158 -12.8,12.80158 -7.06987,0 -12.80088,-5.73172 -12.8,-12.80158 -8.8e-4,-7.06986 5.73013,-12.80158 12.8,-12.80158 7.06985,0 12.80086,5.73172 12.8,12.80158 z" style="fill:url(#radialGradient2658);fill-opacity:1;fill-rule:nonzero;stroke:#000;stroke-width:1.0666666;stroke-linecap:round;stroke-linejoin:miter;stroke-miterlimit:10;stroke-dasharray:none;stroke-dashoffset:0;stroke-opacity:1"/><path id="path3379" d="m 80.7847,125.61758 c 8.6e-4,7.06986 -5.73015,12.80158 -12.8,12.80158 -7.06987,0 -12.80088,-5.73172 -12.8,-12.80158 -8.8e-4,-7.06986 5.73013,-12.80158 12.8,-12.80158 7.06985,0 12.80086,5.73172 12.8,12.80158 z" style="fill:url(#radialGradient2655);fill-opacity:1;fill-rule:nonzero;stroke:#000;stroke-width:1.0666666;stroke-linecap:round;stroke-linejoin:miter;stroke-miterlimit:10;stroke-dasharray:none;stroke-dashoffset:0;stroke-opacity:1"/><path id="path3381" d="m 83.21152,156.27981 c 8.7e-4,7.06986 -5.73014,12.80158 -12.8,12.80158 -7.06986,0 -12.80087,-5.73172 -12.8,-12.80158 -8.7e-4,-7.06986 5.73014,-12.80158 12.8,-12.80158 7.06986,0 12.80087,5.73172 12.8,12.80158 z" style="fill:url(#radialGradient2652);fill-opacity:1;fill-rule:nonzero;stroke:#000;stroke-width:1.0666666;stroke-linecap:round;stroke-linejoin:miter;stroke-miterlimit:10;stroke-dasharray:none;stroke-dashoffset:0;stroke-opacity:1"/><path id="path3383" d="m 104.52702,128.45884 c 8.7e-4,7.06986 -5.73014,12.80158 -12.8,12.80158 -7.06987,0 -12.80087,-5.73172 -12.8,-12.80158 -8.7e-4,-7.06986 5.73013,-12.80158 12.8,-12.80158 7.06986,0 12.80087,5.73172 12.8,12.80158 z" style="fill:url(#radialGradient2649);fill-opacity:1;fill-rule:nonzero;stroke:#000;stroke-width:1.0666666;stroke-linecap:round;stroke-linejoin:miter;stroke-miterlimit:10;stroke-dasharray:none;stroke-dashoffset:0;stroke-opacity:1"/><path id="path8101" d="m 27.71,16.3 c 8.6e-4,7.06986 -5.73014,12.801578 -12.8,12.801578 C 7.84013,29.101578 2.10913,23.36986 2.11,16.3 2.10913,9.230139 7.84013,3.498422 14.91,3.498422 c 7.06986,0 12.80086,5.731717 12.8,12.801578 z" style="fill:url(#radialGradient2602);fill-opacity:1;fill-rule:nonzero;stroke:#000;stroke-width:1.0666666;stroke-linecap:round;stroke-linejoin:miter;stroke-miterlimit:10;stroke-dasharray:none;stroke-dashoffset:0;stroke-opacity:1"/><path id="path8101-4" d="m 178.8,212.5 c 8.6e-4,7.06986 -5.73014,12.80158 -12.8,12.80158 -7.06987,0 -12.80087,-5.73172 -12.8,-12.80158 -8.7e-4,-7.06986 5.73013,-12.80158 12.8,-12.80158 7.06986,0 12.80086,5.73172 12.8,12.80158 z" style="fill:url(#radialGradient2602-4);fill-opacity:1;fill-rule:nonzero;stroke:#000;stroke-width:1.0666666;stroke-linecap:round;stroke-linejoin:miter;stroke-miterlimit:10;stroke-dasharray:none;stroke-dashoffset:0;stroke-opacity:1"/></svg>