<svg xmlns="http://www.w3.org/2000/svg" xmlns:svg="http://www.w3.org/2000/svg" xmlns:xlink="http://www.w3.org/1999/xlink" id="svg2" width="640" height="533.333" version="1.0"><metadata id="metadata117"/><defs id="defs4"><marker id="Arrow2Mend" orient="auto" refX="0" refY="0" style="overflow:visible"><path id="path4692" d="M -5.5798962,-2.5815905 1.4126653,-0.01024849 -5.5798966,2.561093 c 1.117119,-1.518119 1.1106821,-3.5951692 4e-7,-5.1426835 z" style="font-size:12px;fill-rule:evenodd;stroke-width:.40000001;stroke-linejoin:round"/></marker><linearGradient id="linearGradient3433"><stop id="stop3435" offset="0" style="stop-color:#8f8fff;stop-opacity:1"/><stop id="stop3437" offset="1" style="stop-color:#0505ff;stop-opacity:1"/></linearGradient><linearGradient id="linearGradient3373"><stop id="stop3375" offset="0" style="stop-color:#c7c7c7;stop-opacity:1"/><stop id="stop3377" offset="1" style="stop-color:#828282;stop-opacity:1"/></linearGradient><linearGradient id="linearGradient3326"><stop id="stop3328" offset="0" style="stop-color:#ff8f8f;stop-opacity:1"/><stop id="stop3330" offset="1" style="stop-color:#ff0505;stop-opacity:1"/></linearGradient><radialGradient id="radialGradient2568" cx="319.806" cy="194.602" r="205.231" fx="319.806" fy="194.602" gradientTransform="matrix(0.04607248,0,0,0.04328472,37.779329,114.92617)" gradientUnits="userSpaceOnUse" xlink:href="#linearGradient3433"/><radialGradient id="radialGradient2649" cx="319.806" cy="194.602" r="205.231" fx="319.806" fy="194.602" gradientTransform="matrix(0.02854602,0,0,0.03062133,77.439989,153.00995)" gradientUnits="userSpaceOnUse" xlink:href="#linearGradient3373"/><radialGradient id="radialGradient2652" cx="319.806" cy="194.602" r="205.231" fx="319.806" fy="194.602" gradientTransform="matrix(0.02854602,0,0,0.03062133,68.045269,166.16339)" gradientUnits="userSpaceOnUse" xlink:href="#linearGradient3373"/><radialGradient id="radialGradient2655" cx="319.806" cy="194.602" r="205.231" fx="319.806" fy="194.602" gradientTransform="matrix(0.02854602,0,0,0.03062133,66.975649,151.66663)" gradientUnits="userSpaceOnUse" xlink:href="#linearGradient3373"/><radialGradient id="radialGradient2658" cx="319.806" cy="194.602" r="205.231" fx="319.806" fy="194.602" gradientTransform="matrix(0.02854602,0,0,0.03062133,73.031439,159.67241)" gradientUnits="userSpaceOnUse" xlink:href="#linearGradient3326"/><radialGradient id="radialGradient2661" cx="319.806" cy="194.602" r="205.231" fx="319.806" fy="194.602" gradientTransform="matrix(0.02854602,0,0,0.03062133,76.409029,160.27847)" gradientUnits="userSpaceOnUse" xlink:href="#linearGradient3373"/><radialGradient id="radialGradient2664" cx="319.806" cy="194.602" r="205.231" fx="319.806" fy="194.602" gradientTransform="matrix(0.02854602,0,0,0.03062133,64.586359,160.0497)" gradientUnits="userSpaceOnUse" xlink:href="#linearGradient3326"/><radialGradient id="radialGradient2667" cx="319.806" cy="194.602" r="205.231" fx="319.806" fy="194.602" gradientTransform="matrix(0.02854602,0,0,0.03062133,80.661539,159.49697)" gradientUnits="userSpaceOnUse" xlink:href="#linearGradient3326"/><radialGradient id="radialGradient2670" cx="319.806" cy="194.602" r="205.231" fx="319.806" fy="194.602" gradientTransform="matrix(0.02854602,0,0,0.03062133,72.810439,167.72539)" gradientUnits="userSpaceOnUse" xlink:href="#linearGradient3326"/><radialGradient id="radialGradient2568-1" cx="319.806" cy="194.602" r="205.231" fx="319.806" fy="194.602" gradientTransform="matrix(0.04607248,0,0,0.04328472,230.77531,177.69079)" gradientUnits="userSpaceOnUse" xlink:href="#linearGradient3433"/><radialGradient id="radialGradient2649-0" cx="319.806" cy="194.602" r="205.231" fx="319.806" fy="194.602" gradientTransform="matrix(0.02854602,0,0,0.03062133,214.99454,219.09786)" gradientUnits="userSpaceOnUse" xlink:href="#linearGradient3373"/><radialGradient id="radialGradient2652-4" cx="319.806" cy="194.602" r="205.231" fx="319.806" fy="194.602" gradientTransform="matrix(0.02854602,0,0,0.03062133,205.59982,232.2513)" gradientUnits="userSpaceOnUse" xlink:href="#linearGradient3373"/><radialGradient id="radialGradient2655-4" cx="319.806" cy="194.602" r="205.231" fx="319.806" fy="194.602" gradientTransform="matrix(0.02854602,0,0,0.03062133,204.5302,217.75454)" gradientUnits="userSpaceOnUse" xlink:href="#linearGradient3373"/><radialGradient id="radialGradient2658-2" cx="319.806" cy="194.602" r="205.231" fx="319.806" fy="194.602" gradientTransform="matrix(0.02854602,0,0,0.03062133,210.58599,225.76032)" gradientUnits="userSpaceOnUse" xlink:href="#linearGradient3326"/><radialGradient id="radialGradient2661-4" cx="319.806" cy="194.602" r="205.231" fx="319.806" fy="194.602" gradientTransform="matrix(0.02854602,0,0,0.03062133,213.96358,226.36638)" gradientUnits="userSpaceOnUse" xlink:href="#linearGradient3373"/><radialGradient id="radialGradient2664-5" cx="319.806" cy="194.602" r="205.231" fx="319.806" fy="194.602" gradientTransform="matrix(0.02854602,0,0,0.03062133,202.14091,226.13761)" gradientUnits="userSpaceOnUse" xlink:href="#linearGradient3326"/><radialGradient id="radialGradient2667-5" cx="319.806" cy="194.602" r="205.231" fx="319.806" fy="194.602" gradientTransform="matrix(0.02854602,0,0,0.03062133,218.21609,225.58488)" gradientUnits="userSpaceOnUse" xlink:href="#linearGradient3326"/><radialGradient id="radialGradient2670-4" cx="319.806" cy="194.602" r="205.231" fx="319.806" fy="194.602" gradientTransform="matrix(0.02854602,0,0,0.03062133,210.36499,233.8133)" gradientUnits="userSpaceOnUse" xlink:href="#linearGradient3326"/><marker id="Arrow2Mend-3" orient="auto" refX="0" refY="0" style="overflow:visible"><path id="path4692-2" d="M -5.5798962,-2.5815905 1.4126653,-0.01024849 -5.5798966,2.561093 c 1.117119,-1.518119 1.1106821,-3.5951692 4e-7,-5.1426835 z" style="font-size:12px;fill-rule:evenodd;stroke-width:.40000001;stroke-linejoin:round"/></marker><radialGradient id="radialGradient2568-3" cx="319.806" cy="194.602" r="205.231" fx="319.806" fy="194.602" gradientTransform="matrix(0.04607248,0,0,0.04328472,422.98807,174.14305)" gradientUnits="userSpaceOnUse" xlink:href="#linearGradient3433"/><radialGradient id="radialGradient2649-6" cx="319.806" cy="194.602" r="205.231" fx="319.806" fy="194.602" gradientTransform="matrix(0.02854602,0,0,0.03062133,462.64873,212.22683)" gradientUnits="userSpaceOnUse" xlink:href="#linearGradient3373"/><radialGradient id="radialGradient2652-7" cx="319.806" cy="194.602" r="205.231" fx="319.806" fy="194.602" gradientTransform="matrix(0.02854602,0,0,0.03062133,453.25401,225.38027)" gradientUnits="userSpaceOnUse" xlink:href="#linearGradient3373"/><radialGradient id="radialGradient2655-1" cx="319.806" cy="194.602" r="205.231" fx="319.806" fy="194.602" gradientTransform="matrix(0.02854602,0,0,0.03062133,452.18439,210.88351)" gradientUnits="userSpaceOnUse" xlink:href="#linearGradient3373"/><radialGradient id="radialGradient2658-9" cx="319.806" cy="194.602" r="205.231" fx="319.806" fy="194.602" gradientTransform="matrix(0.02854602,0,0,0.03062133,458.24018,218.88929)" gradientUnits="userSpaceOnUse" xlink:href="#linearGradient3326"/><radialGradient id="radialGradient2661-1" cx="319.806" cy="194.602" r="205.231" fx="319.806" fy="194.602" gradientTransform="matrix(0.02854602,0,0,0.03062133,461.61777,219.49535)" gradientUnits="userSpaceOnUse" xlink:href="#linearGradient3373"/><radialGradient id="radialGradient2664-2" cx="319.806" cy="194.602" r="205.231" fx="319.806" fy="194.602" gradientTransform="matrix(0.02854602,0,0,0.03062133,449.7951,219.26658)" gradientUnits="userSpaceOnUse" xlink:href="#linearGradient3326"/><radialGradient id="radialGradient2667-3" cx="319.806" cy="194.602" r="205.231" fx="319.806" fy="194.602" gradientTransform="matrix(0.02854602,0,0,0.03062133,465.87028,218.71385)" gradientUnits="userSpaceOnUse" xlink:href="#linearGradient3326"/><radialGradient id="radialGradient2670-5" cx="319.806" cy="194.602" r="205.231" fx="319.806" fy="194.602" gradientTransform="matrix(0.02854602,0,0,0.03062133,458.01918,226.94227)" gradientUnits="userSpaceOnUse" xlink:href="#linearGradient3326"/><radialGradient id="radialGradient2568-3-7" cx="319.806" cy="194.602" r="205.231" fx="319.806" fy="194.602" gradientTransform="matrix(0.04607248,0,0,0.04328472,586.22337,208.33423)" gradientUnits="userSpaceOnUse" xlink:href="#linearGradient3433"/><radialGradient id="radialGradient2649-6-9" cx="319.806" cy="194.602" r="205.231" fx="319.806" fy="194.602" gradientTransform="matrix(0.02854602,0,0,0.03062133,558.60462,313.69742)" gradientUnits="userSpaceOnUse" xlink:href="#linearGradient3373"/><radialGradient id="radialGradient2652-7-9" cx="319.806" cy="194.602" r="205.231" fx="319.806" fy="194.602" gradientTransform="matrix(0.02854602,0,0,0.03062133,549.2099,326.85086)" gradientUnits="userSpaceOnUse" xlink:href="#linearGradient3373"/><radialGradient id="radialGradient2655-1-6" cx="319.806" cy="194.602" r="205.231" fx="319.806" fy="194.602" gradientTransform="matrix(0.02854602,0,0,0.03062133,548.14028,312.3541)" gradientUnits="userSpaceOnUse" xlink:href="#linearGradient3373"/><radialGradient id="radialGradient2658-9-9" cx="319.806" cy="194.602" r="205.231" fx="319.806" fy="194.602" gradientTransform="matrix(0.02854602,0,0,0.03062133,554.19607,320.35988)" gradientUnits="userSpaceOnUse" xlink:href="#linearGradient3326"/><radialGradient id="radialGradient2661-1-6" cx="319.806" cy="194.602" r="205.231" fx="319.806" fy="194.602" gradientTransform="matrix(0.02854602,0,0,0.03062133,557.57366,320.96594)" gradientUnits="userSpaceOnUse" xlink:href="#linearGradient3373"/><radialGradient id="radialGradient2664-2-0" cx="319.806" cy="194.602" r="205.231" fx="319.806" fy="194.602" gradientTransform="matrix(0.02854602,0,0,0.03062133,545.75099,320.73717)" gradientUnits="userSpaceOnUse" xlink:href="#linearGradient3326"/><radialGradient id="radialGradient2667-3-5" cx="319.806" cy="194.602" r="205.231" fx="319.806" fy="194.602" gradientTransform="matrix(0.02854602,0,0,0.03062133,561.82617,320.18444)" gradientUnits="userSpaceOnUse" xlink:href="#linearGradient3326"/><radialGradient id="radialGradient2670-5-2" cx="319.806" cy="194.602" r="205.231" fx="319.806" fy="194.602" gradientTransform="matrix(0.02854602,0,0,0.03062133,553.97507,328.41286)" gradientUnits="userSpaceOnUse" xlink:href="#linearGradient3326"/><marker id="Arrow2Mend-36" orient="auto" refX="0" refY="0" style="overflow:visible"><path id="path4692-3" d="M -5.5798962,-2.5815905 1.4126653,-0.01024849 -5.5798966,2.561093 c 1.117119,-1.518119 1.1106821,-3.5951692 4e-7,-5.1426835 z" style="font-size:12px;fill-rule:evenodd;stroke-width:.40000001;stroke-linejoin:round"/></marker></defs><g id="layer1"><path style="fill:#fff;fill-opacity:0;fill-rule:nonzero;stroke:#000;stroke-width:2.17017436;stroke-linecap:round;stroke-linejoin:miter;stroke-miterlimit:10;stroke-dasharray:none;stroke-dashoffset:0;stroke-opacity:1" id="path3322" d="m 134.52977,168.34835 c 0.004,29.36029 -24.0406,53.16343 -53.701961,53.16343 -29.66136,0 -53.70562,-23.80314 -53.70197,-53.16343 -0.004,-29.36029 24.04061,-53.16343 53.70197,-53.16343 29.661361,0 53.705621,23.80314 53.701961,53.16343 z"/><path id="path3340" d="m 86.104389,174.31802 c 3.8e-4,3.34255 -2.52554,6.05244 -5.64155,6.05244 -3.11602,0 -5.64194,-2.70989 -5.64155,-6.05244 -3.9e-4,-3.34255 2.52553,-6.05244 5.64155,-6.05244 3.11601,0 5.64193,2.70989 5.64155,6.05244 z" style="fill:url(#radialGradient2670);fill-opacity:1;fill-rule:nonzero;stroke:#000;stroke-width:.48691884;stroke-linecap:round;stroke-linejoin:miter;stroke-miterlimit:10;stroke-dasharray:none;stroke-dashoffset:0;stroke-opacity:1"/><path id="path3355" d="m 93.955499,166.0896 c 3.8e-4,3.34255 -2.52554,6.05244 -5.64156,6.05244 -3.11601,0 -5.64193,-2.70989 -5.64155,-6.05244 -3.8e-4,-3.34255 2.52554,-6.05244 5.64155,-6.05244 3.11602,0 5.64194,2.70989 5.64156,6.05244 z" style="fill:url(#radialGradient2667);fill-opacity:1;fill-rule:nonzero;stroke:#000;stroke-width:.48691884;stroke-linecap:round;stroke-linejoin:miter;stroke-miterlimit:10;stroke-dasharray:none;stroke-dashoffset:0;stroke-opacity:1"/><path id="path3359" d="m 77.880309,166.64233 c 3.8e-4,3.34255 -2.52554,6.05244 -5.64155,6.05244 -3.11602,0 -5.64194,-2.70989 -5.64155,-6.05244 -3.9e-4,-3.34255 2.52553,-6.05244 5.64155,-6.05244 3.11601,0 5.64193,2.70989 5.64155,6.05244 z" style="fill:url(#radialGradient2664);fill-opacity:1;fill-rule:nonzero;stroke:#000;stroke-width:.48691884;stroke-linecap:round;stroke-linejoin:miter;stroke-miterlimit:10;stroke-dasharray:none;stroke-dashoffset:0;stroke-opacity:1"/><path id="path3369" d="m 89.702989,166.8711 c 3.8e-4,3.34255 -2.52554,6.05244 -5.64155,6.05244 -3.11602,0 -5.64194,-2.70989 -5.64156,-6.05244 -3.8e-4,-3.34255 2.52554,-6.05244 5.64156,-6.05244 3.11601,0 5.64193,2.70989 5.64155,6.05244 z" style="fill:url(#radialGradient2661);fill-opacity:1;fill-rule:nonzero;stroke:#000;stroke-width:.48691884;stroke-linecap:round;stroke-linejoin:miter;stroke-miterlimit:10;stroke-dasharray:none;stroke-dashoffset:0;stroke-opacity:1"/><path id="path3363" d="m 86.325389,166.26504 c 3.8e-4,3.34255 -2.52554,6.05245 -5.64155,6.05245 -3.11602,0 -5.64194,-2.7099 -5.64155,-6.05245 -3.9e-4,-3.34255 2.52553,-6.05244 5.64155,-6.05244 3.11601,0 5.64193,2.70989 5.64155,6.05244 z" style="fill:url(#radialGradient2658);fill-opacity:1;fill-rule:nonzero;stroke:#000;stroke-width:.48691884;stroke-linecap:round;stroke-linejoin:miter;stroke-miterlimit:10;stroke-dasharray:none;stroke-dashoffset:0;stroke-opacity:1"/><path id="path3379" d="m 80.269609,158.25926 c 3.8e-4,3.34255 -2.52554,6.05245 -5.64155,6.05245 -3.11602,0 -5.64194,-2.7099 -5.64156,-6.05245 -3.8e-4,-3.34255 2.52554,-6.05244 5.64156,-6.05244 3.11601,0 5.64193,2.70989 5.64155,6.05244 z" style="fill:url(#radialGradient2655);fill-opacity:1;fill-rule:nonzero;stroke:#000;stroke-width:.48691884;stroke-linecap:round;stroke-linejoin:miter;stroke-miterlimit:10;stroke-dasharray:none;stroke-dashoffset:0;stroke-opacity:1"/><path id="path3381" d="m 81.339219,172.75602 c 3.8e-4,3.34255 -2.52554,6.05244 -5.64155,6.05244 -3.11602,0 -5.64194,-2.70989 -5.64155,-6.05244 -3.9e-4,-3.34255 2.52553,-6.05244 5.64155,-6.05244 3.11601,0 5.64193,2.70989 5.64155,6.05244 z" style="fill:url(#radialGradient2652);fill-opacity:1;fill-rule:nonzero;stroke:#000;stroke-width:.48691884;stroke-linecap:round;stroke-linejoin:miter;stroke-miterlimit:10;stroke-dasharray:none;stroke-dashoffset:0;stroke-opacity:1"/><path id="path3383" d="m 90.733949,159.60258 c 3.8e-4,3.34255 -2.52554,6.05244 -5.64156,6.05244 -3.11601,0 -5.64193,-2.70989 -5.64155,-6.05244 -3.8e-4,-3.34255 2.52554,-6.05244 5.64155,-6.05244 3.11602,0 5.64194,2.70989 5.64156,6.05244 z" style="fill:url(#radialGradient2649);fill-opacity:1;fill-rule:nonzero;stroke:#000;stroke-width:.48691884;stroke-linecap:round;stroke-linejoin:miter;stroke-miterlimit:10;stroke-dasharray:none;stroke-dashoffset:0;stroke-opacity:1"/><path style="fill:url(#radialGradient2568);fill-opacity:1;fill-rule:nonzero;stroke:#000;stroke-width:.73546135;stroke-linecap:round;stroke-linejoin:miter;stroke-miterlimit:10;stroke-dasharray:none;stroke-dashoffset:0;stroke-opacity:1" id="path3439" d="m 59.235399,124.24516 c 6.2e-4,4.72485 -4.07615,8.55542 -9.1053,8.55542 -5.02917,0 -9.10594,-3.83057 -9.10531,-8.55542 -6.3e-4,-4.72485 4.07614,-8.55541 9.10531,-8.55541 5.02915,0 9.10592,3.83056 9.1053,8.55541 z"/><path id="path2505" d="m 95.367032,179.97201 70.416728,23.97746" style="fill:none;fill-rule:evenodd;stroke:#000;stroke-width:3.09232306;stroke-linecap:butt;stroke-linejoin:miter;stroke-miterlimit:4;stroke-dasharray:3.09232293,3.09232293;stroke-dashoffset:0;stroke-opacity:1;marker-end:url(#Arrow2Mend)"/><path style="fill:#fff;fill-opacity:0;fill-rule:nonzero;stroke:#000;stroke-width:2.17017436;stroke-linecap:round;stroke-linejoin:miter;stroke-miterlimit:10;stroke-dasharray:none;stroke-dashoffset:0;stroke-opacity:1" id="path3322-7" d="m 274.2902,233.33331 c 0.004,29.36029 -24.0406,53.16343 -53.70196,53.16343 -29.66136,0 -53.70562,-23.80314 -53.70197,-53.16343 -0.004,-29.36029 24.04061,-53.16343 53.70197,-53.16343 29.66136,0 53.70562,23.80314 53.70196,53.16343 z"/><path id="path3340-0" d="m 223.65894,240.40593 c 3.8e-4,3.34255 -2.52554,6.05244 -5.64155,6.05244 -3.11602,0 -5.64194,-2.70989 -5.64155,-6.05244 -3.9e-4,-3.34255 2.52553,-6.05244 5.64155,-6.05244 3.11601,0 5.64193,2.70989 5.64155,6.05244 z" style="fill:url(#radialGradient2670-4);fill-opacity:1;fill-rule:nonzero;stroke:#000;stroke-width:.48691884;stroke-linecap:round;stroke-linejoin:miter;stroke-miterlimit:10;stroke-dasharray:none;stroke-dashoffset:0;stroke-opacity:1"/><path id="path3355-5" d="m 231.51005,232.17751 c 3.8e-4,3.34255 -2.52554,6.05244 -5.64156,6.05244 -3.11601,0 -5.64193,-2.70989 -5.64155,-6.05244 -3.8e-4,-3.34255 2.52554,-6.05244 5.64155,-6.05244 3.11602,0 5.64194,2.70989 5.64156,6.05244 z" style="fill:url(#radialGradient2667-5);fill-opacity:1;fill-rule:nonzero;stroke:#000;stroke-width:.48691884;stroke-linecap:round;stroke-linejoin:miter;stroke-miterlimit:10;stroke-dasharray:none;stroke-dashoffset:0;stroke-opacity:1"/><path id="path3359-7" d="m 215.43486,232.73024 c 3.8e-4,3.34255 -2.52554,6.05244 -5.64155,6.05244 -3.11602,0 -5.64194,-2.70989 -5.64155,-6.05244 -3.9e-4,-3.34255 2.52553,-6.05244 5.64155,-6.05244 3.11601,0 5.64193,2.70989 5.64155,6.05244 z" style="fill:url(#radialGradient2664-5);fill-opacity:1;fill-rule:nonzero;stroke:#000;stroke-width:.48691884;stroke-linecap:round;stroke-linejoin:miter;stroke-miterlimit:10;stroke-dasharray:none;stroke-dashoffset:0;stroke-opacity:1"/><path id="path3369-6" d="m 227.25754,232.95901 c 3.8e-4,3.34255 -2.52554,6.05244 -5.64155,6.05244 -3.11602,0 -5.64194,-2.70989 -5.64156,-6.05244 -3.8e-4,-3.34255 2.52554,-6.05244 5.64156,-6.05244 3.11601,0 5.64193,2.70989 5.64155,6.05244 z" style="fill:url(#radialGradient2661-4);fill-opacity:1;fill-rule:nonzero;stroke:#000;stroke-width:.48691884;stroke-linecap:round;stroke-linejoin:miter;stroke-miterlimit:10;stroke-dasharray:none;stroke-dashoffset:0;stroke-opacity:1"/><path id="path3363-4" d="m 223.87994,232.35295 c 3.8e-4,3.34255 -2.52554,6.05245 -5.64155,6.05245 -3.11602,0 -5.64194,-2.7099 -5.64155,-6.05245 -3.9e-4,-3.34255 2.52553,-6.05244 5.64155,-6.05244 3.11601,0 5.64193,2.70989 5.64155,6.05244 z" style="fill:url(#radialGradient2658-2);fill-opacity:1;fill-rule:nonzero;stroke:#000;stroke-width:.48691884;stroke-linecap:round;stroke-linejoin:miter;stroke-miterlimit:10;stroke-dasharray:none;stroke-dashoffset:0;stroke-opacity:1"/><path id="path3379-3" d="m 217.82416,224.34717 c 3.8e-4,3.34255 -2.52554,6.05245 -5.64155,6.05245 -3.11602,0 -5.64194,-2.7099 -5.64156,-6.05245 -3.8e-4,-3.34255 2.52554,-6.05244 5.64156,-6.05244 3.11601,0 5.64193,2.70989 5.64155,6.05244 z" style="fill:url(#radialGradient2655-4);fill-opacity:1;fill-rule:nonzero;stroke:#000;stroke-width:.48691884;stroke-linecap:round;stroke-linejoin:miter;stroke-miterlimit:10;stroke-dasharray:none;stroke-dashoffset:0;stroke-opacity:1"/><path id="path3381-5" d="m 218.89377,238.84393 c 3.8e-4,3.34255 -2.52554,6.05244 -5.64155,6.05244 -3.11602,0 -5.64194,-2.70989 -5.64155,-6.05244 -3.9e-4,-3.34255 2.52553,-6.05244 5.64155,-6.05244 3.11601,0 5.64193,2.70989 5.64155,6.05244 z" style="fill:url(#radialGradient2652-4);fill-opacity:1;fill-rule:nonzero;stroke:#000;stroke-width:.48691884;stroke-linecap:round;stroke-linejoin:miter;stroke-miterlimit:10;stroke-dasharray:none;stroke-dashoffset:0;stroke-opacity:1"/><path id="path3383-3" d="m 228.2885,225.69049 c 3.8e-4,3.34255 -2.52554,6.05244 -5.64156,6.05244 -3.11601,0 -5.64193,-2.70989 -5.64155,-6.05244 -3.8e-4,-3.34255 2.52554,-6.05244 5.64155,-6.05244 3.11602,0 5.64194,2.70989 5.64156,6.05244 z" style="fill:url(#radialGradient2649-0);fill-opacity:1;fill-rule:nonzero;stroke:#000;stroke-width:.48691884;stroke-linecap:round;stroke-linejoin:miter;stroke-miterlimit:10;stroke-dasharray:none;stroke-dashoffset:0;stroke-opacity:1"/><path style="fill:url(#radialGradient2568-1);fill-opacity:1;fill-rule:nonzero;stroke:#000;stroke-width:.73546135;stroke-linecap:round;stroke-linejoin:miter;stroke-miterlimit:10;stroke-dasharray:none;stroke-dashoffset:0;stroke-opacity:1" id="path3439-7" d="m 252.23138,187.00978 c 6.2e-4,4.72485 -4.07615,8.55542 -9.1053,8.55542 -5.02917,0 -9.10594,-3.83057 -9.10531,-8.55542 -6.3e-4,-4.72485 4.07614,-8.55541 9.10531,-8.55541 5.02915,0 9.10592,3.83056 9.1053,8.55541 z"/><path id="path365" d="M 287.86765,239.95096 H 401.98398" style="fill:#230909;fill-opacity:1;fill-rule:evenodd;stroke:#030000;stroke-width:3.49099994;stroke-linecap:butt;stroke-linejoin:miter;stroke-miterlimit:4;stroke-dasharray:none;stroke-opacity:1;marker-end:url(#Arrow2Mend-3)"/><path style="fill:#fff;fill-opacity:0;fill-rule:nonzero;stroke:#000;stroke-width:2.17017436;stroke-linecap:round;stroke-linejoin:miter;stroke-miterlimit:10;stroke-dasharray:none;stroke-dashoffset:0;stroke-opacity:1" id="path3322-70" d="m 519.73852,227.56523 c 0.004,29.36029 -24.0406,53.16343 -53.70197,53.16343 -29.66136,0 -53.70562,-23.80314 -53.70197,-53.16343 -0.004,-29.36029 24.04061,-53.16343 53.70197,-53.16343 29.66137,0 53.70563,23.80314 53.70197,53.16343 z"/><path id="path3340-2" d="m 471.31313,233.5349 c 3.8e-4,3.34255 -2.52554,6.05244 -5.64155,6.05244 -3.11602,0 -5.64194,-2.70989 -5.64155,-6.05244 -3.9e-4,-3.34255 2.52553,-6.05244 5.64155,-6.05244 3.11601,0 5.64193,2.70989 5.64155,6.05244 z" style="fill:url(#radialGradient2670-5);fill-opacity:1;fill-rule:nonzero;stroke:#000;stroke-width:.48691884;stroke-linecap:round;stroke-linejoin:miter;stroke-miterlimit:10;stroke-dasharray:none;stroke-dashoffset:0;stroke-opacity:1"/><path id="path3355-6" d="m 479.16424,225.30648 c 3.8e-4,3.34255 -2.52554,6.05244 -5.64156,6.05244 -3.11601,0 -5.64193,-2.70989 -5.64155,-6.05244 -3.8e-4,-3.34255 2.52554,-6.05244 5.64155,-6.05244 3.11602,0 5.64194,2.70989 5.64156,6.05244 z" style="fill:url(#radialGradient2667-3);fill-opacity:1;fill-rule:nonzero;stroke:#000;stroke-width:.48691884;stroke-linecap:round;stroke-linejoin:miter;stroke-miterlimit:10;stroke-dasharray:none;stroke-dashoffset:0;stroke-opacity:1"/><path id="path3359-0" d="m 463.08905,225.85921 c 3.8e-4,3.34255 -2.52554,6.05244 -5.64155,6.05244 -3.11602,0 -5.64194,-2.70989 -5.64155,-6.05244 -3.9e-4,-3.34255 2.52553,-6.05244 5.64155,-6.05244 3.11601,0 5.64193,2.70989 5.64155,6.05244 z" style="fill:url(#radialGradient2664-2);fill-opacity:1;fill-rule:nonzero;stroke:#000;stroke-width:.48691884;stroke-linecap:round;stroke-linejoin:miter;stroke-miterlimit:10;stroke-dasharray:none;stroke-dashoffset:0;stroke-opacity:1"/><path id="path3369-7" d="m 474.91173,226.08798 c 3.8e-4,3.34255 -2.52554,6.05244 -5.64155,6.05244 -3.11602,0 -5.64194,-2.70989 -5.64156,-6.05244 -3.8e-4,-3.34255 2.52554,-6.05244 5.64156,-6.05244 3.11601,0 5.64193,2.70989 5.64155,6.05244 z" style="fill:url(#radialGradient2661-1);fill-opacity:1;fill-rule:nonzero;stroke:#000;stroke-width:.48691884;stroke-linecap:round;stroke-linejoin:miter;stroke-miterlimit:10;stroke-dasharray:none;stroke-dashoffset:0;stroke-opacity:1"/><path id="path3363-3" d="m 471.53413,225.48192 c 3.8e-4,3.34255 -2.52554,6.05245 -5.64155,6.05245 -3.11602,0 -5.64194,-2.7099 -5.64155,-6.05245 -3.9e-4,-3.34255 2.52553,-6.05244 5.64155,-6.05244 3.11601,0 5.64193,2.70989 5.64155,6.05244 z" style="fill:url(#radialGradient2658-9);fill-opacity:1;fill-rule:nonzero;stroke:#000;stroke-width:.48691884;stroke-linecap:round;stroke-linejoin:miter;stroke-miterlimit:10;stroke-dasharray:none;stroke-dashoffset:0;stroke-opacity:1"/><path id="path3379-7" d="m 465.47835,217.47614 c 3.8e-4,3.34255 -2.52554,6.05245 -5.64155,6.05245 -3.11602,0 -5.64194,-2.7099 -5.64156,-6.05245 -3.8e-4,-3.34255 2.52554,-6.05244 5.64156,-6.05244 3.11601,0 5.64193,2.70989 5.64155,6.05244 z" style="fill:url(#radialGradient2655-1);fill-opacity:1;fill-rule:nonzero;stroke:#000;stroke-width:.48691884;stroke-linecap:round;stroke-linejoin:miter;stroke-miterlimit:10;stroke-dasharray:none;stroke-dashoffset:0;stroke-opacity:1"/><path id="path3381-1" d="m 466.54796,231.9729 c 3.8e-4,3.34255 -2.52554,6.05244 -5.64155,6.05244 -3.11602,0 -5.64194,-2.70989 -5.64155,-6.05244 -3.9e-4,-3.34255 2.52553,-6.05244 5.64155,-6.05244 3.11601,0 5.64193,2.70989 5.64155,6.05244 z" style="fill:url(#radialGradient2652-7);fill-opacity:1;fill-rule:nonzero;stroke:#000;stroke-width:.48691884;stroke-linecap:round;stroke-linejoin:miter;stroke-miterlimit:10;stroke-dasharray:none;stroke-dashoffset:0;stroke-opacity:1"/><path id="path3383-8" d="m 475.94269,218.81946 c 3.8e-4,3.34255 -2.52554,6.05244 -5.64156,6.05244 -3.11601,0 -5.64193,-2.70989 -5.64155,-6.05244 -3.8e-4,-3.34255 2.52554,-6.05244 5.64155,-6.05244 3.11602,0 5.64194,2.70989 5.64156,6.05244 z" style="fill:url(#radialGradient2649-6);fill-opacity:1;fill-rule:nonzero;stroke:#000;stroke-width:.48691884;stroke-linecap:round;stroke-linejoin:miter;stroke-miterlimit:10;stroke-dasharray:none;stroke-dashoffset:0;stroke-opacity:1"/><path style="fill:url(#radialGradient2568-3);fill-opacity:1;fill-rule:nonzero;stroke:#000;stroke-width:.73546135;stroke-linecap:round;stroke-linejoin:miter;stroke-miterlimit:10;stroke-dasharray:none;stroke-dashoffset:0;stroke-opacity:1" id="path3439-4" d="m 444.44414,183.46204 c 6.2e-4,4.72485 -4.07615,8.55542 -9.1053,8.55542 -5.02917,0 -9.10594,-3.83057 -9.10531,-8.55542 -6.3e-4,-4.72485 4.07614,-8.55541 9.10531,-8.55541 5.02915,0 9.10592,3.83056 9.1053,8.55541 z"/><path style="fill:#fff;fill-opacity:0;fill-rule:nonzero;stroke:#000;stroke-width:2.17017436;stroke-linecap:round;stroke-linejoin:miter;stroke-miterlimit:10;stroke-dasharray:none;stroke-dashoffset:0;stroke-opacity:1" id="path3322-70-7" d="m 615.69441,329.03582 c 0.004,29.36029 -24.0406,53.16343 -53.70197,53.16343 -29.66136,0 -53.70562,-23.80314 -53.70197,-53.16343 -0.004,-29.36029 24.04061,-53.16343 53.70197,-53.16343 29.66137,0 53.70563,23.80314 53.70197,53.16343 z"/><path id="path3340-2-6" d="m 567.26902,335.00549 c 3.8e-4,3.34255 -2.52554,6.05244 -5.64155,6.05244 -3.11602,0 -5.64194,-2.70989 -5.64155,-6.05244 -3.9e-4,-3.34255 2.52553,-6.05244 5.64155,-6.05244 3.11601,0 5.64193,2.70989 5.64155,6.05244 z" style="fill:url(#radialGradient2670-5-2);fill-opacity:1;fill-rule:nonzero;stroke:#000;stroke-width:.48691884;stroke-linecap:round;stroke-linejoin:miter;stroke-miterlimit:10;stroke-dasharray:none;stroke-dashoffset:0;stroke-opacity:1"/><path id="path3355-6-6" d="m 575.12013,326.77707 c 3.8e-4,3.34255 -2.52554,6.05244 -5.64156,6.05244 -3.11601,0 -5.64193,-2.70989 -5.64155,-6.05244 -3.8e-4,-3.34255 2.52554,-6.05244 5.64155,-6.05244 3.11602,0 5.64194,2.70989 5.64156,6.05244 z" style="fill:url(#radialGradient2667-3-5);fill-opacity:1;fill-rule:nonzero;stroke:#000;stroke-width:.48691884;stroke-linecap:round;stroke-linejoin:miter;stroke-miterlimit:10;stroke-dasharray:none;stroke-dashoffset:0;stroke-opacity:1"/><path id="path3359-0-3" d="m 559.04494,327.3298 c 3.8e-4,3.34255 -2.52554,6.05244 -5.64155,6.05244 -3.11602,0 -5.64194,-2.70989 -5.64155,-6.05244 -3.9e-4,-3.34255 2.52553,-6.05244 5.64155,-6.05244 3.11601,0 5.64193,2.70989 5.64155,6.05244 z" style="fill:url(#radialGradient2664-2-0);fill-opacity:1;fill-rule:nonzero;stroke:#000;stroke-width:.48691884;stroke-linecap:round;stroke-linejoin:miter;stroke-miterlimit:10;stroke-dasharray:none;stroke-dashoffset:0;stroke-opacity:1"/><path id="path3369-7-2" d="m 570.86762,327.55857 c 3.8e-4,3.34255 -2.52554,6.05244 -5.64155,6.05244 -3.11602,0 -5.64194,-2.70989 -5.64156,-6.05244 -3.8e-4,-3.34255 2.52554,-6.05244 5.64156,-6.05244 3.11601,0 5.64193,2.70989 5.64155,6.05244 z" style="fill:url(#radialGradient2661-1-6);fill-opacity:1;fill-rule:nonzero;stroke:#000;stroke-width:.48691884;stroke-linecap:round;stroke-linejoin:miter;stroke-miterlimit:10;stroke-dasharray:none;stroke-dashoffset:0;stroke-opacity:1"/><path id="path3363-3-4" d="m 567.49002,326.95251 c 3.8e-4,3.34255 -2.52554,6.05245 -5.64155,6.05245 -3.11602,0 -5.64194,-2.7099 -5.64155,-6.05245 -3.9e-4,-3.34255 2.52553,-6.05244 5.64155,-6.05244 3.11601,0 5.64193,2.70989 5.64155,6.05244 z" style="fill:url(#radialGradient2658-9-9);fill-opacity:1;fill-rule:nonzero;stroke:#000;stroke-width:.48691884;stroke-linecap:round;stroke-linejoin:miter;stroke-miterlimit:10;stroke-dasharray:none;stroke-dashoffset:0;stroke-opacity:1"/><path id="path3379-7-3" d="m 561.43424,318.94673 c 3.8e-4,3.34255 -2.52554,6.05245 -5.64155,6.05245 -3.11602,0 -5.64194,-2.7099 -5.64156,-6.05245 -3.8e-4,-3.34255 2.52554,-6.05244 5.64156,-6.05244 3.11601,0 5.64193,2.70989 5.64155,6.05244 z" style="fill:url(#radialGradient2655-1-6);fill-opacity:1;fill-rule:nonzero;stroke:#000;stroke-width:.48691884;stroke-linecap:round;stroke-linejoin:miter;stroke-miterlimit:10;stroke-dasharray:none;stroke-dashoffset:0;stroke-opacity:1"/><path id="path3381-1-6" d="m 562.50385,333.44349 c 3.8e-4,3.34255 -2.52554,6.05244 -5.64155,6.05244 -3.11602,0 -5.64194,-2.70989 -5.64155,-6.05244 -3.9e-4,-3.34255 2.52553,-6.05244 5.64155,-6.05244 3.11601,0 5.64193,2.70989 5.64155,6.05244 z" style="fill:url(#radialGradient2652-7-9);fill-opacity:1;fill-rule:nonzero;stroke:#000;stroke-width:.48691884;stroke-linecap:round;stroke-linejoin:miter;stroke-miterlimit:10;stroke-dasharray:none;stroke-dashoffset:0;stroke-opacity:1"/><path id="path3383-8-0" d="m 571.89858,320.29005 c 3.8e-4,3.34255 -2.52554,6.05244 -5.64156,6.05244 -3.11601,0 -5.64193,-2.70989 -5.64155,-6.05244 -3.8e-4,-3.34255 2.52554,-6.05244 5.64155,-6.05244 3.11602,0 5.64194,2.70989 5.64156,6.05244 z" style="fill:url(#radialGradient2649-6-9);fill-opacity:1;fill-rule:nonzero;stroke:#000;stroke-width:.48691884;stroke-linecap:round;stroke-linejoin:miter;stroke-miterlimit:10;stroke-dasharray:none;stroke-dashoffset:0;stroke-opacity:1"/><path style="fill:url(#radialGradient2568-3-7);fill-opacity:1;fill-rule:nonzero;stroke:#000;stroke-width:.73546135;stroke-linecap:round;stroke-linejoin:miter;stroke-miterlimit:10;stroke-dasharray:none;stroke-dashoffset:0;stroke-opacity:1" id="path3439-4-4" d="m 607.67944,217.65322 c 6.2e-4,4.72485 -4.07615,8.55542 -9.1053,8.55542 -5.02917,0 -9.10594,-3.83057 -9.10531,-8.55542 -6.3e-4,-4.72485 4.07614,-8.55541 9.10531,-8.55541 5.02915,0 9.10592,3.83056 9.1053,8.55541 z"/><flowRoot id="flowRoot1523" xml:space="preserve" style="font-size:40px;line-height:200px;font-family:sans-serif;letter-spacing:0;word-spacing:0;fill:none;stroke:#000;stroke-width:1px;stroke-linecap:butt;stroke-linejoin:miter;stroke-opacity:1"><flowRegion id="flowRegion1525"><rect id="rect1527" width="154.412" height="75" x="71.691" y="129.657"/></flowRegion><flowPara id="flowPara1529">*******</flowPara></flowRoot><text style="font-size:40px;line-height:200px;font-family:sans-serif;letter-spacing:0;word-spacing:0;fill:none;stroke:#000;stroke-width:1px;stroke-linecap:butt;stroke-linejoin:miter;stroke-opacity:1" id="text1533" x="87.132" y="158.333" xml:space="preserve"><tspan id="tspan1531" x="87.132" y="158.333">*</tspan></text></g></svg>